<svg aria-hidden="true" style="position: absolute; width: 0; height: 0; overflow: hidden;" version="1.1" xmlns="http://www.w3.org/2000/svg" xmlns:xlink="http://www.w3.org/1999/xlink">
<defs>
<symbol id="icon-basket" viewBox="0 0 32 32">
<path fill="#faf6f2" style="fill: var(--color1, #faf6f2)" d="M9.6 0h-1.2v6h-8.4v25.6h32v-25.6h-8.4v-6h-14zM21.2 8.4v2.4h2.4v-2.4h6v20.8h-27.2v-20.8h6v2.4h2.4v-2.4h10.4zM21.2 6v-3.6h-10.4v3.6h10.4z"></path>
</symbol>
<symbol id="icon-Call" viewBox="0 0 32 32">
<path fill="none" stroke="#faf6f2" style="stroke: var(--color1, #faf6f2)" stroke-linejoin="round" stroke-linecap="round" stroke-miterlimit="4" stroke-width="2.2857" d="M1.524 5.147l5.033-3.613c0 0 0.143-0.152 1.077 0.76s4.158 5.116 4.158 5.116l-1.103 4.602 8.562 8.558 4.601-1.102 5.089 3.76 0.787 1.474-3.614 5.033-5.523-0.052-19.016-19.015-0.052-5.523z"></path>
</symbol>
<symbol id="icon-call-phone" viewBox="0 0 33 32">
<path fill="#bb8c5f" style="fill: var(--color2, #bb8c5f)" d="M24.097 12.398c-0.125-1.022-0.439-1.825-0.995-2.536-0.723-0.915-1.646-1.463-3.013-1.789-0.891-0.217-1.251-0.192-1.573 0.103-0.3 0.276-0.359 0.831-0.129 1.19 0.161 0.261 0.347 0.354 0.865 0.456 0.689 0.127 1.166 0.292 1.599 0.54 0.92 0.532 1.348 1.365 1.394 2.714 0.021 0.633 0.076 0.828 0.297 1.053 0.409 0.411 1.137 0.331 1.445-0.161 0.113-0.185 0.131-0.266 0.142-0.696 0.008-0.266-0.003-0.662-0.031-0.875v0z"></path>
<path fill="#bb8c5f" style="fill: var(--color2, #bb8c5f)" d="M27.699 13.55c-0.182-3.131-1.403-5.651-3.59-7.423-1.232-0.996-2.721-1.681-4.353-2.014-0.598-0.119-1.699-0.216-1.888-0.16-0.178 0.051-0.43 0.245-0.543 0.42-0.119 0.19-0.146 0.613-0.044 0.858 0.164 0.41 0.468 0.554 1.32 0.629 1.314 0.115 2.669 0.578 3.693 1.263 1.169 0.78 2.098 1.847 2.7 3.101 0.519 1.077 0.839 2.63 0.83 4.020-0.003 0.503 0.075 0.787 0.276 0.994 0.304 0.319 0.748 0.389 1.14 0.177 0.434-0.229 0.536-0.631 0.459-1.864v0z"></path>
<path fill="#bb8c5f" style="fill: var(--color2, #bb8c5f)" d="M31.685 25.609c-0.061-0.179-0.204-0.455-0.306-0.614-0.642-0.971-4.089-3.676-5.811-4.561-0.983-0.506-1.711-0.675-2.251-0.516-0.581 0.164-0.886 0.435-1.859 1.646-0.392 0.486-0.794 0.941-0.901 1.012-0.265 0.184-0.784 0.333-1.151 0.333-0.851-0.005-2.394-0.558-3.58-1.283-0.922-0.562-2.103-1.57-3.010-2.567-1.069-1.171-1.798-2.204-2.373-3.37-0.744-1.498-0.932-2.413-0.621-3.083 0.076-0.169 0.178-0.348 0.224-0.404 0.046-0.051 0.525-0.445 1.054-0.874 1.039-0.828 1.207-1.017 1.401-1.585 0.244-0.721 0.178-1.457-0.199-2.199-0.29-0.562-1.049-1.79-1.599-2.582-0.728-1.043-2.541-3.272-2.903-3.574-0.652-0.532-1.487-0.624-2.409-0.266-0.973 0.378-2.796 1.851-3.575 2.879-0.703 0.931-0.973 1.59-1.013 2.459-0.036 0.716 0.025 1.012 0.402 1.928 2.949 7.179 7.349 12.91 13.394 17.461 3.157 2.377 6.432 4.188 9.829 5.425 1.981 0.721 2.842 0.757 3.855 0.164 0.428-0.256 1.487-1.345 2.078-2.137 0.978-1.319 1.339-1.928 1.441-2.413 0.071-0.332 0.015-0.91-0.117-1.278v0z"></path>
<path fill="#bb8c5f" style="fill: var(--color2, #bb8c5f)" d="M31.366 14.268c-0.065-1.771-0.363-3.224-0.983-4.844-0.612-1.593-1.232-2.633-2.403-4.040-1.107-1.319-1.966-2.072-3.33-2.91-1.902-1.168-4.217-1.94-6.811-2.265-0.885-0.114-1.085-0.105-1.356 0.076-0.526 0.344-0.519 1.202 0.009 1.54 0.175 0.108 0.33 0.147 1.037 0.24 1.086 0.147 1.785 0.285 2.614 0.511 3.25 0.891 5.75 2.711 7.421 5.414 1.398 2.253 1.979 4.505 1.896 7.383-0.029 0.973-0.008 1.144 0.141 1.378 0.284 0.435 1.033 0.522 1.417 0.16 0.239-0.22 0.284-0.386 0.331-1.218 0.023-0.434 0.027-1.075 0.017-1.425v0z"></path>
</symbol>
<symbol id="icon-Group" viewBox="0 0 32 32">
<path fill="none" stroke="#faf6f2" style="stroke: var(--color1, #faf6f2)" stroke-linejoin="miter" stroke-linecap="butt" stroke-miterlimit="4" stroke-width="2.3579" d="M30.316 31.158v-7.579h-28.632v7.579"></path>
<path fill="none" stroke="#faf6f2" style="stroke: var(--color1, #faf6f2)" stroke-linejoin="miter" stroke-linecap="butt" stroke-miterlimit="4" stroke-width="2.3579" d="M24.084 9.263c0 4.465-3.619 8.084-8.084 8.084s-8.084-3.619-8.084-8.084c0-4.465 3.619-8.084 8.084-8.084s8.084 3.619 8.084 8.084z"></path>
</symbol>
<symbol id="icon-heart" viewBox="0 0 32 32">
<path fill="#faf6f2" style="fill: var(--color1, #faf6f2)" d="M7.707 15.761c-0.49-0.49-0.869-1.078-1.112-1.727s-0.345-1.341-0.299-2.032 0.24-1.364 0.567-1.974c0.328-0.61 0.782-1.143 1.332-1.563s1.184-0.718 1.859-0.873c0.675-0.155 1.375-0.164 2.054-0.026s1.32 0.419 1.881 0.825c0.561 0.406 1.029 0.927 1.372 1.528h1.278c0.343-0.601 0.811-1.123 1.372-1.528s1.202-0.687 1.881-0.825c0.678-0.138 1.379-0.129 2.054 0.026s1.309 0.453 1.859 0.873 1.005 0.953 1.332 1.563c0.328 0.61 0.521 1.283 0.567 1.974s-0.056 1.384-0.299 2.032c-0.243 0.648-0.623 1.237-1.112 1.727l-8.293 8.295-8.293-8.295zM25.099 16.572c0.585-0.585 1.043-1.286 1.345-2.056s0.44-1.596 0.408-2.423c-0.033-0.827-0.236-1.639-0.598-2.383s-0.873-1.406-1.503-1.944c-0.63-0.537-1.364-0.939-2.156-1.179s-1.626-0.313-2.448-0.216c-0.822 0.098-1.615 0.364-2.329 0.784s-1.333 0.981-1.819 1.651c-0.486-0.67-1.106-1.232-1.819-1.651s-1.507-0.686-2.329-0.784c-0.822-0.098-1.655-0.024-2.448 0.216s-1.526 0.641-2.156 1.179c-0.63 0.537-1.141 1.199-1.503 1.944s-0.565 1.556-0.598 2.383c-0.033 0.827 0.106 1.652 0.408 2.423s0.759 1.471 1.345 2.056l9.099 9.098 9.099-9.098z"></path>
<path fill="#faf6f2" style="fill: var(--color1, #faf6f2)" d="M8.050 15.62l-0.1-0.101c-0.455-0.455-0.807-1.002-1.034-1.605s-0.321-1.246-0.278-1.888 0.223-1.268 0.527-1.835c0.304-0.567 0.727-1.062 1.238-1.453s1.101-0.667 1.728-0.811c0.627-0.144 1.278-0.152 1.909-0.024s1.227 0.389 1.748 0.766c0.521 0.377 0.956 0.861 1.275 1.42l0.099 0.173h1.676l0.099-0.173c0.319-0.559 0.754-1.043 1.275-1.42s1.117-0.639 1.748-0.766c0.631-0.128 1.282-0.12 1.909 0.024s1.216 0.421 1.728 0.811c0.512 0.39 0.934 0.886 1.238 1.453s0.484 1.192 0.527 1.835-0.052 1.286-0.278 1.888c-0.226 0.602-0.579 1.15-1.034 1.605l0.242 0.242c0.489-0.49 0.869-1.078 1.112-1.727s0.346-1.341 0.299-2.032c-0.046-0.691-0.24-1.364-0.567-1.974s-0.782-1.143-1.332-1.563-1.184-0.718-1.859-0.873c-0.675-0.155-1.375-0.164-2.054-0.026s-1.32 0.419-1.881 0.825-1.029 0.927-1.372 1.528h-1.278c-0.343-0.601-0.811-1.123-1.372-1.528s-1.202-0.687-1.881-0.825c-0.679-0.138-1.379-0.129-2.054 0.026s-1.309 0.453-1.859 0.873c-0.55 0.42-1.005 0.953-1.332 1.563s-0.521 1.283-0.567 1.974c-0.046 0.691 0.056 1.384 0.299 2.032s0.623 1.237 1.112 1.727l8.293 8.295 8.293-8.295-0.242-0.242-8.050 8.052-7.95-7.951zM6.901 16.572l9.099 9.098 9.099-9.098c0.585-0.585 1.043-1.286 1.345-2.056s0.44-1.596 0.408-2.423c-0.033-0.827-0.236-1.639-0.598-2.383s-0.873-1.406-1.503-1.944c-0.63-0.537-1.364-0.939-2.156-1.179s-1.626-0.313-2.448-0.216c-0.822 0.098-1.615 0.364-2.329 0.784-0.611 0.359-1.153 0.822-1.602 1.369-0.075 0.092-0.148 0.186-0.218 0.282-0.070-0.096-0.143-0.19-0.218-0.282-0.448-0.546-0.99-1.010-1.602-1.369-0.714-0.419-1.507-0.686-2.329-0.784s-1.655-0.024-2.448 0.216-1.526 0.641-2.156 1.179c-0.63 0.537-1.141 1.199-1.503 1.944s-0.565 1.556-0.598 2.383c-0.033 0.827 0.106 1.652 0.408 2.423s0.759 1.471 1.345 2.056zM25.442 16.712v0.004l-9.442 9.44-9.342-9.341c-0.619-0.619-1.103-1.359-1.422-2.174s-0.466-1.687-0.431-2.561 0.25-1.732 0.632-2.519c0.382-0.787 0.923-1.487 1.589-2.055s1.442-0.992 2.279-1.246c0.838-0.254 1.718-0.331 2.587-0.228s1.707 0.385 2.462 0.828c0.625 0.367 1.181 0.837 1.646 1.39 0.465-0.553 1.021-1.024 1.646-1.39 0.755-0.443 1.593-0.725 2.462-0.828s1.75-0.026 2.587 0.228c0.837 0.254 1.613 0.678 2.279 1.246s1.206 1.268 1.589 2.055c0.382 0.787 0.597 1.645 0.632 2.519s-0.112 1.746-0.431 2.561c-0.301 0.77-0.75 1.474-1.321 2.071z"></path>
</symbol>
<symbol id="icon-instagram" viewBox="0 0 32 32">
<path fill="#bb8c5f" style="fill: var(--color2, #bb8c5f)" d="M9.404 0.097c-1.703 0.078-2.866 0.348-3.883 0.743-1.052 0.409-1.945 0.955-2.834 1.845s-1.437 1.782-1.847 2.834c-0.397 1.018-0.667 2.181-0.743 3.883-0.076 1.707-0.096 2.252-0.096 6.598s0.019 4.889 0.097 6.596c0.078 1.703 0.348 2.866 0.743 3.883 0.409 1.052 0.956 1.945 1.845 2.834s1.782 1.438 2.833 1.847c1.018 0.396 2.181 0.665 3.884 0.743 1.707 0.078 2.252 0.097 6.597 0.097s4.889-0.019 6.596-0.097c1.703-0.078 2.867-0.348 3.885-0.743 1.052-0.409 1.943-0.957 2.832-1.847s1.437-1.782 1.847-2.834c0.393-1.018 0.663-2.181 0.743-3.883 0.077-1.707 0.097-2.251 0.097-6.596s-0.020-4.891-0.097-6.597c-0.080-1.703-0.35-2.866-0.743-3.883-0.41-1.052-0.957-1.945-1.847-2.834s-1.78-1.437-2.833-1.845c-1.020-0.396-2.183-0.665-3.887-0.743-1.707-0.078-2.25-0.097-6.597-0.097h0.005c-4.345 0-4.891 0.019-6.597 0.097zM15.468 2.883l0.534 0c4.272 0 4.778 0.015 6.465 0.092 1.56 0.071 2.407 0.332 2.971 0.551 0.747 0.29 1.279 0.637 1.839 1.197s0.907 1.093 1.197 1.84c0.219 0.563 0.48 1.41 0.551 2.97 0.077 1.687 0.093 2.193 0.093 6.463s-0.017 4.777-0.093 6.463c-0.071 1.56-0.332 2.407-0.551 2.97-0.29 0.747-0.637 1.278-1.197 1.838s-1.092 0.907-1.839 1.197c-0.563 0.22-1.411 0.48-2.971 0.551-1.687 0.077-2.193 0.093-6.465 0.093s-4.779-0.017-6.465-0.093c-1.56-0.072-2.407-0.333-2.971-0.552-0.747-0.29-1.28-0.637-1.84-1.197s-0.907-1.092-1.197-1.839c-0.219-0.563-0.48-1.41-0.551-2.97-0.077-1.687-0.092-2.193-0.092-6.466s0.015-4.777 0.092-6.463c0.071-1.56 0.332-2.407 0.551-2.971 0.29-0.747 0.637-1.28 1.197-1.84s1.093-0.907 1.84-1.197c0.564-0.22 1.411-0.48 2.971-0.552 1.476-0.067 2.048-0.087 5.030-0.090v0.004c0.279-0 0.578-0 0.901-0zM24.543 5.54c-1.060 0-1.92 0.859-1.92 1.919s0.86 1.92 1.92 1.92 1.92-0.86 1.92-1.92c0-1.060-0.86-1.92-1.92-1.92v0.001z"></path>
<path fill="#bb8c5f" style="fill: var(--color2, #bb8c5f)" d="M7.785 16c0-4.538 3.679-8.217 8.216-8.217s8.216 3.679 8.216 8.217c0 4.538-3.678 8.215-8.215 8.215s-8.217-3.677-8.217-8.215zM21.335 16c0-2.946-2.388-5.333-5.333-5.333s-5.333 2.388-5.333 5.333c0 2.945 2.388 5.333 5.333 5.333s5.333-2.388 5.333-5.333z"></path>
</symbol>
<symbol id="icon-Line" viewBox="0 0 1024 32">
<path fill="#bb8c5f" style="fill: var(--color2, #bb8c5f)" d="M0.604 16l15.396 15.396 15.396-15.396-15.396-15.396-15.396 15.396zM1023.397 16l-15.397-15.396-15.397 15.396 15.397 15.396 15.397-15.396zM16 18.667l992-0v-5.333l-992 0v5.333z"></path>
</symbol>
<symbol id="icon-mail" viewBox="0 0 32 32">
<path fill="#faf6f2" style="fill: var(--color1, #faf6f2)" d="M25.714 10.553l-9.356 6.342-10.073-6.828v13.361h19.429v-12.875zM7.134 8.571l9.224 6.253 9.224-6.253h-18.448zM4.571 6.857h22.857v2.415l0.055 0.081-0.055 0.037v15.752h-22.857v-18.286z"></path>
</symbol>
<symbol id="icon-telegram" viewBox="0 0 37 32">
<path fill="#bb8c5f" style="fill: var(--color2, #bb8c5f)" d="M14.608 20.326l-0.573 8.586c0.842 0 1.214-0.385 1.684-0.842l4.046-3.934 8.417 6.219c1.549 0.855 2.667 0.412 3.053-1.438l5.526-26.039c0.566-2.268-0.865-3.297-2.347-2.624l-32.446 12.511c-2.215 0.888-2.202 2.124-0.404 2.675l8.326 2.599 19.277-12.161c0.91-0.552 1.745-0.255 1.060 0.353l-15.619 14.096z"></path>
</symbol>
<symbol id="icon-viber" viewBox="0 0 32 32">
<path fill="#bb8c5f" style="fill: var(--color2, #bb8c5f)" d="M31.304 15.417c-0.003 8.391-6.829 15.219-15.222 15.222h-0.006c-2.548-0.001-5.051-0.64-7.275-1.853l-8.070 2.117 2.16-7.888c-1.332-2.309-2.033-4.927-2.032-7.61 0.003-8.393 6.832-15.222 15.223-15.222 4.072 0.002 7.894 1.587 10.768 4.464s4.456 6.702 4.454 10.769zM4.386 27.287l4.789-1.256 0.462 0.274c1.943 1.153 4.169 1.763 6.44 1.764h0.005c6.974 0 12.649-5.676 12.652-12.652 0.001-3.381-1.313-6.56-3.702-8.951s-5.565-3.709-8.945-3.71c-6.979 0-12.655 5.675-12.658 12.651-0.001 2.391 0.668 4.719 1.934 6.733l0.301 0.479-1.278 4.669z"></path>
<path fill="#bb8c5f" style="fill: var(--color2, #bb8c5f)" d="M23.45 19.988c-0.095-0.159-0.349-0.254-0.729-0.444s-2.25-1.11-2.599-1.238c-0.349-0.127-0.602-0.19-0.856 0.19s-0.982 1.238-1.204 1.491c-0.222 0.254-0.444 0.286-0.824 0.095s-1.606-0.592-3.059-1.888c-1.131-1.009-1.894-2.254-2.116-2.635s-0.024-0.586 0.167-0.776c0.171-0.171 0.38-0.444 0.571-0.666s0.254-0.381 0.38-0.634c0.127-0.254 0.063-0.476-0.032-0.666s-0.856-2.063-1.173-2.824c-0.309-0.742-0.622-0.641-0.856-0.653-0.222-0.011-0.475-0.013-0.729-0.013s-0.666 0.095-1.014 0.476c-0.349 0.381-1.331 1.301-1.331 3.173s1.363 3.681 1.553 3.935c0.19 0.254 2.682 4.096 6.498 5.743 0.908 0.392 1.616 0.626 2.168 0.801 0.911 0.29 1.74 0.249 2.396 0.151 0.731-0.109 2.25-0.92 2.567-1.808s0.317-1.65 0.222-1.809z"></path>
</symbol>
</defs>
</svg>
