<svg aria-hidden="true" style="position: absolute; width: 0; height: 0; overflow: hidden;" version="1.1" xmlns="http://www.w3.org/2000/svg" xmlns:xlink="http://www.w3.org/1999/xlink">
<defs>
<symbol id="icon-heart-card" viewBox="0 0 36 32">
<path fill="#524336" style="fill: var(--color1, #524336)" d="M32.466 17.113l-14.688 14.684-14.532-14.53c-0.962-0.963-1.715-2.114-2.211-3.382s-0.724-2.624-0.671-3.984c0.054-1.36 0.388-2.694 0.983-3.919s1.436-2.313 2.471-3.197c1.035-0.884 2.243-1.544 3.545-1.938s2.673-0.515 4.025-0.354c1.352 0.161 2.656 0.599 3.829 1.288 0.972 0.571 1.838 1.302 2.56 2.163 0.723-0.86 1.588-1.592 2.56-2.163 1.174-0.689 2.478-1.128 3.829-1.288s2.722-0.040 4.025 0.355c1.303 0.395 2.51 1.054 3.545 1.938s1.877 1.972 2.471 3.197c0.594 1.225 0.929 2.559 0.983 3.919s-0.175 2.717-0.671 3.984c-0.469 1.198-1.167 2.293-2.055 3.222v0.005zM5.412 15.409l12.366 12.368 12.522-12.526c0.708-0.708 1.256-1.559 1.608-2.496s0.499-1.939 0.433-2.938-0.346-1.972-0.82-2.854c-0.474-0.882-1.131-1.652-1.926-2.26s-1.712-1.037-2.688-1.262c-0.976-0.224-1.988-0.237-2.969-0.038s-1.908 0.606-2.719 1.192c-0.811 0.587-1.487 1.34-1.983 2.21l-0.154 0.269h-2.607l-0.154-0.269c-0.496-0.869-1.172-1.623-1.983-2.21s-1.738-0.993-2.719-1.192c-0.981-0.199-1.993-0.186-2.969 0.038s-1.892 0.654-2.688 1.262c-0.796 0.607-1.452 1.378-1.926 2.26s-0.753 1.855-0.82 2.854c-0.067 0.999 0.081 2 0.433 2.938s0.9 1.788 1.608 2.496l0.156 0.158z"></path>
</symbol>
<symbol id="icon-Vector-2" viewBox="0 0 36 32">
<path fill="#bb8c5f" style="fill: var(--color2, #bb8c5f)" d="M32.466 17.113v-0.005c0.888-0.929 1.586-2.024 2.055-3.222 0.496-1.268 0.724-2.624 0.671-3.984s-0.388-2.694-0.983-3.919c-0.594-1.225-1.436-2.313-2.471-3.197s-2.242-1.544-3.545-1.938c-1.303-0.395-2.673-0.515-4.025-0.354s-2.655 0.599-3.829 1.288c-0.972 0.571-1.837 1.302-2.56 2.163-0.723-0.86-1.588-1.592-2.56-2.163-1.174-0.689-2.478-1.128-3.829-1.288s-2.722-0.040-4.025 0.355c-1.303 0.395-2.51 1.054-3.545 1.938s-1.877 1.972-2.471 3.197c-0.594 1.225-0.929 2.559-0.983 3.919s0.175 2.717 0.671 3.984c0.496 1.268 1.249 2.419 2.211 3.382l14.532 14.53 14.688-14.684z"></path>
</symbol>
</defs>
</svg>
